<svg width="152" height="45" viewBox="0 0 152 45" fill="none" xmlns="http://www.w3.org/2000/svg">
<path d="M0.75 22.6116C0.75 10.4613 10.5997 0.611572 22.75 0.611572C34.9003 0.611572 44.75 10.4613 44.75 22.6116C44.75 34.7618 34.9003 44.6116 22.75 44.6116C10.5997 44.6116 0.75 34.7618 0.75 22.6116Z" fill="white"/>
<path d="M27.5979 22.2279L30.616 30.5206L25.9625 23.0143L27.5979 22.2279Z" fill="url(#paint0_linear_2757_9994)"/>
<path d="M21.7873 17.8852C21.8243 17.808 21.8825 17.7417 21.9559 17.6934C22.0293 17.6451 22.1152 17.6166 22.2043 17.6109C22.2934 17.6052 22.3824 17.6225 22.462 17.6609C22.5416 17.6994 22.6087 17.7577 22.6563 17.8294L24.4051 20.479C22.3069 21.4923 20.3816 22.8002 18.6941 24.3587L21.7873 17.8852ZM21.9417 11.6116C21.5458 11.612 21.16 11.7297 20.8379 11.9484C20.5158 12.167 20.2736 12.4757 20.1451 12.8313L13.4627 30.6246C13.2501 31.0784 13.1358 31.5683 13.1267 32.0649C13.1034 32.6582 13.3256 33.2366 13.7456 33.6765C17.0123 35.9121 24.9967 30.9879 24.9967 30.9879L24.5868 30.4417C24.2917 30.5818 17.9167 34.2474 15.9206 32.7176C14.6295 31.7236 17.5888 28.3928 17.5888 28.3928C19.9975 26.2506 26.8971 20.4881 31.817 20.1404C31.817 20.1404 33.7912 19.9808 33.4852 21.617C33.4852 21.617 33.4784 23.1611 30.3237 26.3141L30.6297 26.9123C30.6297 26.9123 36.4008 21.8804 34.8651 18.9064C34.8651 18.9064 33.6819 16.7369 28.2825 18.6988C28.2825 18.6988 27.5802 18.9752 26.531 19.4527L23.7233 12.7898C23.5884 12.4442 23.3454 12.1461 23.0269 11.9355C22.7085 11.7249 22.3298 11.6119 21.9417 11.6116Z" fill="url(#paint1_linear_2757_9994)"/>
<g clip-path="url(#clip0_2757_9994)">
<path d="M64.0814 9.9875C64.055 9.9875 64.0285 9.9875 64.0008 9.9875C62.0612 9.9875 60.3977 10.6819 59.0568 12.0506C57.7133 13.423 57.0315 15.2378 57.0315 17.4445L57 28.5449H59.0807V18.1389H68.9284V28.5928H70.9839V17.0122C70.9839 14.9933 70.2958 13.3033 68.9448 11.9913C67.6581 10.7159 65.8874 9.9875 64.0814 9.9875ZM68.8667 16.0582H59.2521C59.4084 15.0336 59.8835 14.1565 60.6964 13.3927C61.6516 12.4954 62.6548 12.0216 63.7601 11.946H64.0298C65.2522 11.9611 66.336 12.406 67.3518 13.3133C68.1735 14.0178 68.7091 14.9971 68.8679 16.0569L68.8667 16.0582Z" fill="#171717"/>
<path d="M76.9594 15.8692H72.5977V35.2596H74.725V28.5172H77.1737C79.03 28.5172 80.6092 27.9047 81.8631 26.7037C83.1108 25.5417 83.8077 23.8983 83.7737 22.2033C83.7737 20.4099 83.1751 18.8901 81.998 17.6865C80.8171 16.4804 79.122 15.8692 76.9594 15.8692ZM81.6224 22.2424C81.5922 23.4699 81.1927 24.4554 80.3987 25.2569C79.6098 26.0534 78.5083 26.4403 77.0313 26.4403L74.725 26.4441V17.8768H76.8183C78.3545 17.8781 79.5228 18.2876 80.3899 19.1282C81.2481 19.9613 81.6527 20.9808 81.6237 22.2424H81.6224Z" fill="#171717"/>
<path d="M89.1008 15.8692H84.7402V35.2596H86.8676V28.5172H89.315C91.1726 28.5172 92.753 27.9047 94.0044 26.7037C95.2521 25.5417 95.949 23.8983 95.915 22.2033C95.915 20.4099 95.3176 18.8901 94.1405 17.6865C92.9597 16.4804 91.2646 15.8692 89.1008 15.8692ZM93.7587 22.2436C93.731 23.4711 93.3302 24.4566 92.5362 25.2582C91.746 26.0547 90.6446 26.4428 89.1675 26.4428L86.8676 26.4466V17.8768H88.9583C90.4921 17.8781 91.6591 18.2876 92.5261 19.1282C93.3844 19.9613 93.7877 20.9808 93.7599 22.2436H93.7587Z" fill="#171717"/>
<path d="M107.946 17.7117V15.8944L96.8357 15.8679V17.9486H104.843L96.8357 26.7503V28.5689H107.988V26.4882H99.9788L107.946 17.7117Z" fill="#171717"/>
<path d="M112.071 10.6126C111.852 10.3517 111.52 10.2106 111.18 10.2307H111.147C110.836 10.2307 110.536 10.3618 110.326 10.5912L110.307 10.6126C110.153 10.8004 110.057 11.0272 110.029 11.2679L110.026 11.3902C110.023 11.68 110.124 11.9623 110.313 12.1892C110.518 12.4286 110.823 12.5673 111.137 12.5673C111.141 12.5673 111.145 12.5673 111.147 12.5673L111.218 12.571H111.219C111.534 12.571 111.835 12.4362 112.046 12.2018L112.06 12.1867C112.215 11.9989 112.312 11.7708 112.338 11.5275L112.341 11.4066C112.345 11.1255 112.251 10.8495 112.08 10.6277L112.067 10.6113L112.071 10.6126Z" fill="#171717"/>
<path d="M112.25 16.1791H110.123V28.5449H112.25V16.1791Z" fill="#171717"/>
<path d="M117.155 9.96356H115.027V28.5449H117.155V9.96356Z" fill="#171717"/>
<path d="M122.131 9.96356H120.004V28.5449H122.131V9.96356Z" fill="#171717"/>
<path d="M130.417 15.7544C130.417 15.7544 130.404 15.7544 130.398 15.7544C128.634 15.7204 127.079 16.3493 125.784 17.6259C124.491 18.9013 123.836 20.4527 123.836 22.2385C123.855 25.7861 126.75 28.6633 130.285 28.6633H130.31C130.34 28.6633 130.37 28.6633 130.401 28.6633C132.077 28.6633 133.703 27.979 134.875 26.778C136.107 25.5946 136.8 23.9373 136.778 22.241C136.798 20.5422 136.116 18.8849 134.907 17.6902C133.74 16.4589 132.102 15.7532 130.417 15.7532V15.7544ZM130.194 17.9826C131.348 17.9599 132.441 18.3871 133.273 19.1849C134.105 19.9839 134.576 21.0589 134.6 22.2208C134.643 23.3664 134.209 24.4944 133.409 25.3148L133.398 25.3274C132.626 26.173 131.529 26.6645 130.383 26.6759C129.182 26.6885 128.171 26.2675 127.287 25.3753C126.461 24.5788 125.954 23.3589 125.963 22.1881C126.024 19.8767 127.881 18.0292 130.193 17.9826H130.194Z" fill="#171717"/>
<path d="M148.756 19.7759L148.751 19.7596C148.425 18.7942 147.789 17.8994 146.86 17.1017C145.918 16.2926 144.889 15.8364 143.801 15.7431H143.78L143.575 15.7418C142.066 15.7192 140.62 16.2548 139.501 17.2504C138.297 18.2863 137.688 19.602 137.688 21.161V28.5461H139.815V21.5365C139.805 20.5813 140.184 19.6461 140.858 18.9694L140.873 18.9543C141.509 18.2611 142.416 17.8704 143.359 17.8793H143.476C144.348 17.9133 145.171 18.2662 145.795 18.8761L145.805 18.8862C146.427 19.4621 146.777 20.2788 146.763 21.1358V28.5713H148.893L148.923 20.8787V20.8762C148.923 20.6922 148.908 20.5056 148.881 20.3254C148.853 20.1414 148.812 19.9574 148.759 19.7785L148.756 19.7759Z" fill="#171717"/>
<path d="M146.965 14.4904H147.794V16.7589H148.138V14.4904H148.965V14.1993H146.965V14.4904Z" fill="#171717"/>
<path d="M151.745 14.2044C151.721 14.2044 151.696 14.2056 151.674 14.2132C151.652 14.2233 151.635 14.2409 151.626 14.2636L150.746 15.8288C150.73 15.8578 150.716 15.8881 150.703 15.9183C150.689 15.9498 150.678 15.9813 150.665 16.0141C150.654 15.9813 150.641 15.9511 150.628 15.9196C150.614 15.8881 150.6 15.8591 150.585 15.8301L149.703 14.2585C149.692 14.2371 149.676 14.2195 149.655 14.2081C149.632 14.2006 149.608 14.1981 149.584 14.1993H149.332V16.7539H149.636V14.8773C149.636 14.8194 149.632 14.7601 149.624 14.7022L150.519 16.3065C150.541 16.3556 150.591 16.3871 150.645 16.3859H150.696C150.75 16.3871 150.8 16.3556 150.822 16.3065L151.704 14.7097C151.698 14.7387 151.698 14.7677 151.698 14.7967V16.7539H152V14.1993L151.745 14.2044Z" fill="#171717"/>
</g>
<defs>
<linearGradient id="paint0_linear_2757_9994" x1="24.125" y1="11.6116" x2="24.125" y2="34.2586" gradientUnits="userSpaceOnUse">
<stop stop-color="#1E3083"/>
<stop offset="0.475962" stop-color="#040519"/>
<stop offset="1"/>
</linearGradient>
<linearGradient id="paint1_linear_2757_9994" x1="24.125" y1="11.6116" x2="24.125" y2="34.2586" gradientUnits="userSpaceOnUse">
<stop stop-color="#1E3083"/>
<stop offset="0.475962" stop-color="#040519"/>
<stop offset="1"/>
</linearGradient>
<clipPath id="clip0_2757_9994">
<rect width="95" height="25.296" fill="white" transform="translate(57 9.96356)"/>
</clipPath>
</defs>
</svg>
