<svg width="44" height="44" viewBox="0 0 44 44" fill="none" xmlns="http://www.w3.org/2000/svg">
<rect width="44" height="44" rx="12" fill="#353535"/>
<path d="M25.4729 21.6163L28.491 29.909L23.8375 22.4027L25.4729 21.6163Z" fill="url(#paint0_linear_921_17897)"/>
<path d="M19.6623 17.2737C19.6993 17.1965 19.7575 17.1302 19.8309 17.0819C19.9043 17.0336 19.9902 17.005 20.0793 16.9993C20.1684 16.9936 20.2574 17.0109 20.337 17.0494C20.4166 17.0879 20.4837 17.1461 20.5313 17.2179L22.2801 19.8675C20.1819 20.8807 18.2566 22.1886 16.5691 23.7472L19.6623 17.2737ZM19.8167 11C19.4208 11.0004 19.035 11.1182 18.7129 11.3368C18.3908 11.5555 18.1486 11.8641 18.0201 12.2197L11.3377 30.013C11.1251 30.4669 11.0108 30.9567 11.0017 31.4533C10.9784 32.0467 11.2006 32.6251 11.6206 33.0649C14.8873 35.3006 22.8717 30.3764 22.8717 30.3764L22.4618 29.8301C22.1667 29.9702 15.7917 33.6358 13.7956 32.106C12.5045 31.1121 15.4638 27.7813 15.4638 27.7813C17.8725 25.639 24.7721 19.8766 29.692 19.5288C29.692 19.5288 31.6662 19.3692 31.3602 21.0054C31.3602 21.0054 31.3534 22.5495 28.1987 25.7026L28.5047 26.3007C28.5047 26.3007 34.2758 21.2688 32.7401 18.2948C32.7401 18.2948 31.5569 16.1253 26.1575 18.0872C26.1575 18.0872 25.4552 18.3636 24.406 18.8411L21.5983 12.1782C21.4634 11.8326 21.2204 11.5345 20.9019 11.3239C20.5835 11.1133 20.2048 11.0003 19.8167 11Z" fill="url(#paint1_linear_921_17897)"/>
<defs>
<linearGradient id="paint0_linear_921_17897" x1="22" y1="11" x2="22" y2="33.6471" gradientUnits="userSpaceOnUse">
<stop stop-color="white"/>
<stop offset="1" stop-color="white" stop-opacity="0.6"/>
</linearGradient>
<linearGradient id="paint1_linear_921_17897" x1="22" y1="11" x2="22" y2="33.6471" gradientUnits="userSpaceOnUse">
<stop stop-color="white"/>
<stop offset="1" stop-color="white" stop-opacity="0.6"/>
</linearGradient>
</defs>
</svg>
