<svg width="65" height="64" viewBox="0 0 65 64" fill="none" xmlns="http://www.w3.org/2000/svg">
<path d="M48.0066 11.92C47.7933 11.92 47.58 11.8667 47.3933 11.76C42.2733 9.12004 37.8466 8.00004 32.54 8.00004C27.26 8.00004 22.2466 9.25337 17.6866 11.76C17.0466 12.1067 16.2466 11.8667 15.8733 11.2267C15.5266 10.5867 15.7666 9.76004 16.4066 9.41337C21.3666 6.72004 26.8066 5.33337 32.54 5.33337C38.22 5.33337 43.18 6.58671 48.62 9.38671C49.2866 9.73337 49.5266 10.5334 49.18 11.1734C48.94 11.6534 48.4866 11.92 48.0066 11.92ZM9.84664 25.92C9.57997 25.92 9.31331 25.84 9.07331 25.68C8.45997 25.2534 8.32664 24.4267 8.75331 23.8134C11.3933 20.08 14.7533 17.1467 18.7533 15.0934C27.1266 10.7734 37.8466 10.7467 46.2466 15.0667C50.2466 17.12 53.6066 20.0267 56.2466 23.7334C56.6733 24.32 56.54 25.1734 55.9266 25.6C55.3133 26.0267 54.4866 25.8934 54.06 25.28C51.66 21.92 48.62 19.28 45.02 17.44C37.3666 13.52 27.58 13.52 19.9533 17.4667C16.3266 19.3334 13.2866 22 10.8866 25.36C10.6733 25.7334 10.2733 25.92 9.84664 25.92ZM26.5133 58.1067C26.1666 58.1067 25.82 57.9734 25.58 57.7067C23.26 55.3867 22.0066 53.8934 20.22 50.6667C18.38 47.3867 17.42 43.3867 17.42 39.0934C17.42 31.1734 24.1933 24.72 32.5133 24.72C40.8333 24.72 47.6066 31.1734 47.6066 39.0934C47.6066 39.84 47.02 40.4267 46.2733 40.4267C45.5266 40.4267 44.94 39.84 44.94 39.0934C44.94 32.64 39.3666 27.3867 32.5133 27.3867C25.66 27.3867 20.0866 32.64 20.0866 39.0934C20.0866 42.9334 20.94 46.48 22.5666 49.36C24.2733 52.4267 25.4466 53.7334 27.5 55.8134C28.0066 56.3467 28.0066 57.1734 27.5 57.7067C27.2066 57.9734 26.86 58.1067 26.5133 58.1067ZM45.6333 53.1734C42.46 53.1734 39.66 52.3734 37.3666 50.8C33.3933 48.1067 31.02 43.7334 31.02 39.0934C31.02 38.3467 31.6066 37.76 32.3533 37.76C33.1 37.76 33.6866 38.3467 33.6866 39.0934C33.6866 42.8534 35.6066 46.4 38.86 48.5867C40.7533 49.8667 42.9666 50.48 45.6333 50.48C46.2733 50.48 47.34 50.4 48.4066 50.2134C49.1266 50.08 49.82 50.56 49.9533 51.3067C50.0866 52.0267 49.6066 52.72 48.86 52.8534C47.34 53.1467 46.0066 53.1734 45.6333 53.1734ZM40.2733 58.6667C40.1666 58.6667 40.0333 58.64 39.9266 58.6134C35.6866 57.44 32.9133 55.8667 30.0066 53.0134C26.2733 49.3067 24.22 44.3734 24.22 39.0934C24.22 34.7734 27.9 31.2534 32.4333 31.2534C36.9666 31.2534 40.6466 34.7734 40.6466 39.0934C40.6466 41.9467 43.1266 44.2667 46.1933 44.2667C49.26 44.2667 51.74 41.9467 51.74 39.0934C51.74 29.04 43.0733 20.88 32.4066 20.88C24.8333 20.88 17.9 25.0934 14.78 31.6267C13.74 33.7867 13.2066 36.32 13.2066 39.0934C13.2066 41.1734 13.3933 44.4534 14.9933 48.72C15.26 49.4134 14.9133 50.1867 14.22 50.4267C13.5266 50.6934 12.7533 50.32 12.5133 49.6534C11.2066 46.16 10.5666 42.6934 10.5666 39.0934C10.5666 35.8934 11.18 32.9867 12.38 30.4534C15.9266 23.0134 23.7933 18.1867 32.4066 18.1867C44.54 18.1867 54.4066 27.5467 54.4066 39.0667C54.4066 43.3867 50.7266 46.9067 46.1933 46.9067C41.66 46.9067 37.98 43.3867 37.98 39.0667C37.98 36.2134 35.5 33.8934 32.4333 33.8934C29.3666 33.8934 26.8866 36.2134 26.8866 39.0667C26.8866 43.6267 28.6466 47.8934 31.8733 51.0934C34.4066 53.6 36.8333 54.9867 40.5933 56.0267C41.3133 56.2134 41.7133 56.96 41.5266 57.6534C41.3933 58.2667 40.8333 58.6667 40.2733 58.6667Z" fill="white"/>
</svg>
